<svg xmlns="http://www.w3.org/2000/svg" viewBox="0 0 100 20" fill="currentColor">
  <path d="M8.5 2.5c-3.5 0-6 2-6 6v3c0 4 2.5 6 6 6s6-2 6-6v-3c0-4-2.5-6-6-6zm0 3c1.2 0 2 .8 2 2.5v3.5c0 1.7-.8 2.5-2 2.5s-2-.8-2-2.5V8c0-1.7.8-2.5 2-2.5zM20 2.5v14h3v-9l3 9h3v-14h-3v8l-3-8h-3zM32 2.5v14h3v-9l3 9h3v-14h-3v8l-3-8h-3zM44 2.5v14h3v-9l3 9h3v-14h-3v8l-3-8h-3zM56 2.5v14h3v-9l3 9h3v-14h-3v8l-3-8h-3zM68 2.5v14h3v-5h3v5h3v-14h-3v5h-3v-5h-3zM80 2.5v14h3v-9l3 9h3v-14h-3v8l-3-8h-3zM92 2.5v14h3v-9l3 9h3v-14h-3v8l-3-8h-3z"/>
</svg>